<?xml version="1.0" encoding="UTF-8"?>
<svg width="25px" height="25px" viewBox="0 0 25 25" version="1.1" xmlns="http://www.w3.org/2000/svg" xmlns:xlink="http://www.w3.org/1999/xlink">
    <!-- Generator: Sketch 50.2 (55047) - http://www.bohemiancoding.com/sketch -->
    <title>Google__G__Logo</title>
    <desc>Created with Sketch.</desc>
    <defs>
        <path d="M24.7093023,10.2272727 L12.7906977,10.2272727 L12.7906977,15.0568182 L19.6511628,15.0568182 C19.0116279,18.125 16.3372093,19.8863636 12.7906977,19.8863636 C8.60465116,19.8863636 5.23255814,16.5909091 5.23255814,12.5 C5.23255814,8.40909091 8.60465116,5.11363636 12.7906977,5.11363636 C14.5930233,5.11363636 16.2209302,5.73863636 17.5,6.76136364 L21.2209302,3.125 C18.9534884,1.19318182 16.0465116,0 12.7906977,0 C5.69767442,0 0,5.56818182 0,12.5 C0,19.4318182 5.69767442,25 12.7906977,25 C19.1860465,25 25,20.4545455 25,12.5 C25,11.7613636 24.8837209,10.9659091 24.7093023,10.2272727 Z" id="path-1"></path>
        <path d="M24.7093023,10.2272727 L12.7906977,10.2272727 L12.7906977,15.0568182 L19.6511628,15.0568182 C19.0116279,18.125 16.3372093,19.8863636 12.7906977,19.8863636 C8.60465116,19.8863636 5.23255814,16.5909091 5.23255814,12.5 C5.23255814,8.40909091 8.60465116,5.11363636 12.7906977,5.11363636 C14.5930233,5.11363636 16.2209302,5.73863636 17.5,6.76136364 L21.2209302,3.125 C18.9534884,1.19318182 16.0465116,0 12.7906977,0 C5.69767442,0 0,5.56818182 0,12.5 C0,19.4318182 5.69767442,25 12.7906977,25 C19.1860465,25 25,20.4545455 25,12.5 C25,11.7613636 24.8837209,10.9659091 24.7093023,10.2272727 Z" id="path-3"></path>
        <path d="M24.7093023,10.2272727 L12.7906977,10.2272727 L12.7906977,15.0568182 L19.6511628,15.0568182 C19.0116279,18.125 16.3372093,19.8863636 12.7906977,19.8863636 C8.60465116,19.8863636 5.23255814,16.5909091 5.23255814,12.5 C5.23255814,8.40909091 8.60465116,5.11363636 12.7906977,5.11363636 C14.5930233,5.11363636 16.2209302,5.73863636 17.5,6.76136364 L21.2209302,3.125 C18.9534884,1.19318182 16.0465116,0 12.7906977,0 C5.69767442,0 0,5.56818182 0,12.5 C0,19.4318182 5.69767442,25 12.7906977,25 C19.1860465,25 25,20.4545455 25,12.5 C25,11.7613636 24.8837209,10.9659091 24.7093023,10.2272727 Z" id="path-5"></path>
        <path d="M24.7093023,10.2272727 L12.7906977,10.2272727 L12.7906977,15.0568182 L19.6511628,15.0568182 C19.0116279,18.125 16.3372093,19.8863636 12.7906977,19.8863636 C8.60465116,19.8863636 5.23255814,16.5909091 5.23255814,12.5 C5.23255814,8.40909091 8.60465116,5.11363636 12.7906977,5.11363636 C14.5930233,5.11363636 16.2209302,5.73863636 17.5,6.76136364 L21.2209302,3.125 C18.9534884,1.19318182 16.0465116,0 12.7906977,0 C5.69767442,0 0,5.56818182 0,12.5 C0,19.4318182 5.69767442,25 12.7906977,25 C19.1860465,25 25,20.4545455 25,12.5 C25,11.7613636 24.8837209,10.9659091 24.7093023,10.2272727 Z" id="path-7"></path>
    </defs>
    <g id="Page-1" stroke="none" stroke-width="1" fill="none" fill-rule="evenodd">
        <g id="Google__G__Logo">
            <g id="Clipped">
                <mask id="mask-2" fill="white">
                    <use xlink:href="#path-1"></use>
                </mask>
                <g id="a"></g>
                <polygon id="Shape" fill="#FBBC05" fill-rule="nonzero" mask="url(#mask-2)" points="-1.1627907 19.8863636 -1.1627907 5.11363636 8.72093023 12.5"></polygon>
            </g>
            <g id="Clipped">
                <mask id="mask-4" fill="white">
                    <use xlink:href="#path-3"></use>
                </mask>
                <g id="a"></g>
                <polygon id="Shape" fill="#EA4335" fill-rule="nonzero" mask="url(#mask-4)" points="-1.1627907 5.11363636 8.72093023 12.5 12.7906977 9.03409091 26.744186 6.81818182 26.744186 -1.13636364 -1.1627907 -1.13636364"></polygon>
            </g>
            <g id="Clipped">
                <mask id="mask-6" fill="white">
                    <use xlink:href="#path-5"></use>
                </mask>
                <g id="a"></g>
                <polygon id="Shape" fill="#34A853" fill-rule="nonzero" mask="url(#mask-6)" points="-1.1627907 19.8863636 16.2790698 6.81818182 20.872093 7.38636364 26.744186 -1.13636364 26.744186 26.1363636 -1.1627907 26.1363636"></polygon>
            </g>
            <g id="Clipped">
                <mask id="mask-8" fill="white">
                    <use xlink:href="#path-7"></use>
                </mask>
                <g id="a"></g>
                <polygon id="Shape" fill="#4285F4" fill-rule="nonzero" mask="url(#mask-8)" points="26.744186 26.1363636 8.72093023 12.5 6.39534884 10.7954545 26.744186 5.11363636"></polygon>
            </g>
        </g>
    </g>
</svg>