<?xml version="1.0" encoding="UTF-8" standalone="no"?>
<svg width="130px" height="21px" viewBox="0 0 130 21" version="1.1" xmlns="http://www.w3.org/2000/svg" xmlns:xlink="http://www.w3.org/1999/xlink" xmlns:sketch="http://www.bohemiancoding.com/sketch/ns">
    <!-- Generator: Sketch 3.4.4 (17249) - http://www.bohemiancoding.com/sketch -->
    <title>logo</title>
    <desc>Created with Sketch.</desc>
    <defs></defs>
    <g id="Page-1" stroke="none" stroke-width="1" fill="none" fill-rule="evenodd" sketch:type="MSPage">
        <g id="logo" sketch:type="MSLayerGroup">
            <g id="Group" sketch:type="MSShapeGroup">
                <path d="M13.1,8.6 C12.8,8.8 12.4,8.9 11.8,8.9 L4.5,8.9 C4.7,9.7 5.1,10.3 5.7,10.8 C6.3,11.3 7,11.5 7.9,11.5 C8.3,11.5 8.8,11.5 9.3,11.4 C9.8,11.3 10.2,11.2 10.7,11.1 L11.2,14 C10.6,14.2 10,14.4 9.5,14.5 C9,14.6 8.3,14.7 7.7,14.7 C6.7,14.7 5.8,14.5 4.9,14.2 C4,13.9 3.3,13.4 2.6,12.8 C2,12.2 1.4,11.5 1.1,10.6 C0.7,9.8 0.6,8.8 0.6,7.8 C0.6,6.8 0.8,5.9 1.1,5.1 C1.4,4.3 1.9,3.6 2.5,2.9 C3.1,2.3 3.8,1.8 4.6,1.4 C5.4,1 6.3,0.9 7.3,0.9 C8.1,0.9 9,1.1 9.7,1.4 C10.4,1.7 11.2,2.2 11.7,2.8 C12.3,3.4 12.7,4.1 13.1,4.8 C13.5,5.5 13.6,6.4 13.6,7.2 C13.5,7.9 13.4,8.3 13.1,8.6 L13.1,8.6 Z M9.6,6.7 C9.6,6.4 9.5,6 9.4,5.7 C9.2,5.3 9.1,5 8.9,4.8 C8.7,4.5 8.4,4.3 8.1,4.1 C7.8,3.9 7.5,3.9 7.1,3.9 C6.7,3.9 6.3,4 6,4.1 C5.7,4.3 5.5,4.5 5.2,4.7 C5,5 4.9,5.3 4.8,5.6 C4.6,6 4.5,6.3 4.5,6.7 L9.6,6.7 L9.6,6.7 L9.6,6.7 Z" id="Shape" fill="#FFFFFF"></path>
                <path d="M26.6,13.5 C26.5,13.7 26.4,13.9 26.2,14.1 C26,14.3 25.8,14.4 25.6,14.5 C25.4,14.6 25.1,14.6 24.9,14.6 C24.4,14.6 23.9,14.4 23.5,14.1 C23.1,13.7 22.9,13.3 22.9,12.8 L22.9,6.4 C22.9,5.8 22.7,5.2 22.2,4.8 C21.7,4.4 21.2,4.1 20.6,4.1 C20,4.1 19.4,4.3 19,4.8 C18.6,5.2 18.4,5.8 18.4,6.4 L18.4,14.5 L14.6,14.5 L14.6,2.8 C14.6,2.5 14.6,2.3 14.7,2.1 C14.8,1.9 14.9,1.7 15.1,1.5 C15.3,1.3 15.5,1.2 15.7,1.1 C15.9,1 16.2,0.9 16.4,0.9 C16.9,0.9 17.3,1.1 17.5,1.4 C17.7,1.8 17.9,2.2 17.9,2.6 C18.3,2 18.8,1.6 19.4,1.3 C20,1 20.7,0.9 21.4,0.9 C22.1,0.9 22.8,1 23.4,1.2 C24,1.4 24.6,1.8 25.1,2.2 C25.6,2.6 25.9,3.1 26.2,3.7 C26.5,4.3 26.6,5 26.6,5.7 L26.6,12.7 C26.8,13 26.7,13.3 26.6,13.5 L26.6,13.5 Z" id="Shape" fill="#FFFFFF"></path>
                <path d="M40.5,8.6 C40.2,8.8 39.8,8.9 39.2,8.9 L32,8.9 C32.2,9.7 32.6,10.3 33.2,10.8 C33.8,11.3 34.5,11.5 35.4,11.5 C35.8,11.5 36.3,11.5 36.8,11.4 C37.3,11.3 37.7,11.2 38.2,11.1 L38.7,14 C38.1,14.2 37.5,14.4 37,14.5 C36.5,14.6 35.8,14.7 35.2,14.7 C34.2,14.7 33.3,14.5 32.4,14.2 C31.5,13.9 30.8,13.4 30.1,12.8 C29.5,12.2 28.9,11.5 28.6,10.6 C28.2,9.8 28.1,8.8 28.1,7.8 C28.1,6.8 28.3,5.9 28.6,5.1 C28.9,4.3 29.4,3.6 30,2.9 C30.6,2.3 31.3,1.8 32.1,1.4 C32.9,1 33.8,0.9 34.8,0.9 C35.6,0.9 36.5,1.1 37.2,1.4 C37.9,1.7 38.7,2.2 39.2,2.8 C39.8,3.4 40.2,4.1 40.6,4.8 C41,5.5 41,6.4 41,7.3 C41,7.9 40.9,8.3 40.5,8.6 L40.5,8.6 Z M37.1,6.7 C37.1,6.4 37,6 36.9,5.7 C36.8,5.4 36.6,5.1 36.4,4.8 C36.2,4.5 35.9,4.3 35.6,4.2 C35.3,4.1 35,4 34.6,4 C34.2,4 33.8,4.1 33.5,4.2 C33.2,4.4 32.9,4.6 32.7,4.8 C32.5,5.1 32.3,5.4 32.2,5.7 C32.1,6 32,6.3 32,6.7 L37.1,6.7 L37.1,6.7 L37.1,6.7 Z" id="Shape" fill="#FFFFFF"></path>
                <path d="M50,3.6 C49.9,3.8 49.7,4 49.4,4.2 C49.2,4.4 48.9,4.5 48.6,4.6 C48.3,4.7 48,4.9 47.7,5 C47.4,5.2 47.1,5.3 46.9,5.6 C46.6,5.8 46.4,6.1 46.2,6.5 C46.1,6.7 46,7 45.9,7.4 L45.9,8.5 L45.9,14.5 L42.1,14.5 L42.1,2.9 C42.1,2.7 42.2,2.5 42.3,2.3 C42.4,2.1 42.6,2 42.7,1.9 C42.9,1.7 43.2,1.7 43.4,1.8 C43.6,1.8 43.8,2 44,2.2 C44.2,2.4 44.3,2.7 44.5,3 C44.7,3.3 44.8,3.6 44.9,3.9 C44.9,3.9 45,3.8 45.2,3.6 C45.4,3.4 45.6,3.2 45.9,2.9 C46.2,2.6 46.5,2.3 46.9,2.1 C47.2,1.9 47.5,1.7 47.9,1.6 C48.3,1.4 48.6,1.4 48.9,1.4 C49.3,1.4 49.6,1.6 49.9,1.9 C50.2,2.2 50.3,2.6 50.3,3 C50.2,3.1 50.1,3.4 50,3.6 L50,3.6 Z" id="Shape" fill="#FFFFFF"></path>
                <path d="M62.9,16 C62.6,16.9 62.1,17.7 61.6,18.3 C61,19 60.3,19.5 59.4,19.8 C58.5,20.2 57.6,20.4 56.4,20.4 C55.9,20.4 55.5,20.4 55,20.3 C54.5,20.2 54.1,20.1 53.6,20 C53.6,20 53.5,20 53.5,19.9 L53.4,19.8 L53.4,19.2 C53.4,18.9 53.5,18.5 53.5,18.2 C53.5,17.8 53.6,17.5 53.6,17.2 C53.6,16.9 53.7,16.7 53.7,16.6 C54.1,16.7 54.6,16.8 55.1,16.9 C55.6,17 56,17 56.5,17 C57.5,17 58.3,16.7 58.8,16 C59.3,15.4 59.6,14.6 59.6,13.6 L59.6,13.2 C59.2,13.6 58.7,14 58.2,14.2 C57.7,14.4 57.1,14.5 56.5,14.5 C55.6,14.5 54.7,14.3 54,14 C53.2,13.6 52.6,13.1 52.1,12.5 C51.6,11.9 51.2,11.2 50.9,10.3 C50.6,9.5 50.5,8.6 50.5,7.7 C50.5,6.8 50.6,5.9 50.9,5.1 C51.2,4.2 51.6,3.5 52.1,2.8 C52.6,2.1 53.3,1.6 54,1.2 C54.8,0.8 55.6,0.6 56.6,0.6 C57.3,0.6 57.9,0.7 58.6,1 C59.2,1.3 59.7,1.7 60.1,2.3 C60.1,1.8 60.3,1.4 60.5,1 C60.7,0.6 61.1,0.5 61.7,0.5 C62.3,0.5 62.8,0.7 63.1,1 C63.4,1.4 63.6,1.8 63.6,2.4 L63.6,12.7 C63.3,14.1 63.2,15.1 62.9,16 L62.9,16 Z M59.6,6.9 C59.6,6.6 59.5,6.3 59.4,6 C59.3,5.7 59.2,5.5 59,5.2 C58.8,5 58.6,4.7 58.3,4.6 C57.9,4.4 57.5,4.3 57.1,4.3 C56.6,4.3 56.2,4.4 55.8,4.6 C55.4,4.8 55.1,5.1 54.9,5.4 C54.7,5.7 54.5,6.1 54.4,6.5 C54.3,6.9 54.2,7.3 54.2,7.8 C54.2,8.2 54.3,8.7 54.4,9.1 C54.5,9.5 54.7,9.9 54.9,10.3 C55.1,10.6 55.4,10.9 55.8,11.1 C56.2,11.3 56.6,11.4 57.1,11.4 C57.6,11.4 58,11.3 58.3,11.1 C58.6,10.9 58.9,10.6 59.1,10.3 C59.3,10 59.5,9.6 59.6,9.2 C59.7,8.8 59.8,8.4 59.8,8 C59.7,7.6 59.7,7.3 59.6,6.9 L59.6,6.9 Z" id="Shape" fill="#FFFFFF"></path>
                <path d="M76.5,3.3 C76.5,3.5 76.4,3.8 76.3,4.1 C76.2,4.3 76.1,4.7 75.9,5.3 C75.7,5.8 75.5,6.5 75.2,7.2 C74.9,7.9 74.7,8.7 74.3,9.6 C74,10.5 73.7,11.3 73.3,12.2 C73,13.1 72.6,13.9 72.3,14.7 C72,15.5 71.7,16.2 71.4,16.9 C71.1,17.5 70.9,18.1 70.7,18.5 C70.5,18.9 70.4,19.1 70.3,19.2 C70.1,19.6 69.9,20 69.6,20.2 C69.3,20.5 68.9,20.6 68.5,20.6 C68,20.6 67.6,20.4 67.2,20.1 C66.8,19.8 66.6,19.4 66.6,18.9 C66.6,18.6 66.7,18.2 66.9,17.8 C66.9,17.6 67.1,17.3 67.2,16.9 C67.3,16.5 67.5,16.1 67.7,15.6 C67.9,15.1 68.1,14.8 68.2,14.4 C68.4,14 68.5,13.8 68.5,13.8 L64.2,2.8 L67.7,1.4 L70.5,9.3 L72.7,2.8 C72.8,2.4 73.1,2 73.3,1.7 C73.6,1.4 74,1.2 74.5,1.2 C75,1.2 75.5,1.4 75.8,1.7 C76.1,2 76.4,2.5 76.4,3 C76.6,2.9 76.6,3.1 76.5,3.3 L76.5,3.3 Z" id="Shape" fill="#FFFFFF"></path>
                <path d="M80.1,1 L83.3,11.3 L86.3,2.1 L88.6,2.1 L91.5,11.3 L94.5,1.8 C94.6,1.6 94.7,1.4 94.9,1.2 C95.1,1.1 95.3,1 95.6,1 C95.9,1 96.2,1.1 96.4,1.3 C96.6,1.5 96.7,1.7 96.7,2 C96.7,2.1 96.7,2.3 96.6,2.4 L92.8,13.5 C92.7,13.8 92.5,14.1 92.4,14.3 C92.2,14.5 91.9,14.6 91.6,14.6 C91.3,14.6 91,14.5 90.8,14.3 C90.6,14.1 90.5,13.8 90.4,13.5 L87.5,4.3 L84.6,13.5 C84.5,13.8 84.4,14.1 84.2,14.3 C84,14.5 83.8,14.6 83.4,14.6 C83,14.6 82.7,14.5 82.6,14.3 C82.4,14.1 82.3,13.8 82.2,13.5 L78,1.7 L80.1,1 L80.1,1 Z" id="Shape" fill="#000000"></path>
                <path d="M98.2,5.3 C98.5,4.5 98.8,3.8 99.3,3.1 C99.8,2.5 100.4,1.9 101.1,1.6 C101.8,1.2 102.7,1 103.6,1 C104.5,1 105.4,1.2 106.1,1.6 C106.8,2 107.4,2.5 107.9,3.1 C108.4,3.7 108.8,4.5 109,5.3 C109.3,6.1 109.4,7 109.4,7.8 C109.4,8.6 109.3,9.5 109,10.3 C108.7,11.1 108.4,11.9 107.9,12.5 C107.4,13.2 106.8,13.7 106.1,14.1 C105.4,14.5 104.5,14.7 103.6,14.7 C102.7,14.7 101.8,14.5 101.1,14.1 C100.4,13.7 99.8,13.2 99.3,12.5 C98.8,11.8 98.4,11.1 98.2,10.3 C97.9,9.5 97.8,8.6 97.8,7.8 C97.8,7 97.9,6.1 98.2,5.3 L98.2,5.3 Z M100.2,9.5 C100.3,10.1 100.5,10.6 100.8,11.1 C101.1,11.6 101.4,12 101.9,12.3 C102.4,12.6 102.9,12.8 103.6,12.8 C104.3,12.8 104.9,12.6 105.3,12.3 C105.8,12 106.2,11.6 106.4,11.1 C106.7,10.6 106.9,10.1 107,9.5 C107.1,8.9 107.2,8.3 107.2,7.7 C107.2,7.1 107.1,6.6 107,6 C106.9,5.4 106.7,4.9 106.4,4.4 C106.1,3.9 105.7,3.5 105.3,3.2 C104.8,2.9 104.3,2.7 103.6,2.7 C103,2.7 102.4,2.9 101.9,3.2 C101.4,3.5 101.1,3.9 100.8,4.4 C100.5,4.9 100.3,5.4 100.2,6 C100.1,6.6 100,7.1 100,7.7 C100,8.4 100.1,8.9 100.2,9.5 L100.2,9.5 Z" id="Shape" fill="#000000"></path>
                <path d="M111.5,2.1 C111.5,1.8 111.6,1.6 111.8,1.4 C112,1.2 112.3,1.1 112.5,1.1 C112.7,1.1 113,1.2 113.2,1.3 C113.4,1.5 113.5,1.7 113.5,2 L113.5,2.6 L113.5,3.2 C113.6,3 113.7,2.7 113.9,2.4 C114.1,2.1 114.3,1.9 114.5,1.7 C114.7,1.5 115,1.3 115.2,1.2 C115.5,1.1 115.7,1 116,1 C116.3,1 116.6,1.1 116.9,1.3 C117.1,1.5 117.3,1.8 117.3,2.1 C117.3,2.4 117.2,2.6 117,2.7 C116.8,2.8 116.6,3 116.3,3.1 C116,3.2 115.7,3.4 115.4,3.5 C115.1,3.7 114.8,3.9 114.5,4.2 C114.2,4.5 114,4.9 113.8,5.5 C113.6,6 113.5,6.7 113.5,7.5 L113.5,14.4 L111.4,14.4 L111.4,2.1 L111.5,2.1 Z" id="Shape" fill="#000000"></path>
                <path d="M118.3,2.1 L120,1 L123.6,5.8 L126.8,1.6 C126.9,1.4 127.1,1.3 127.2,1.2 C127.4,1.1 127.5,1 127.7,1 C128,1 128.2,1.1 128.4,1.3 C128.6,1.5 128.7,1.7 128.7,2 C128.7,2.3 128.6,2.5 128.5,2.7 L124.9,7.4 L129,12.9 C129.2,13.1 129.2,13.4 129.2,13.6 C129.2,13.9 129.1,14.1 128.9,14.3 C128.7,14.5 128.5,14.6 128.2,14.6 C128,14.6 127.8,14.5 127.7,14.4 C127.5,14.3 127.4,14.2 127.3,14 L123.6,8.9 L119.9,14 C119.8,14.2 119.6,14.3 119.5,14.4 C119.3,14.5 119.2,14.6 119,14.6 C118.7,14.6 118.5,14.5 118.3,14.3 C118.1,14.1 118,13.9 118,13.6 C118,13.3 118.1,13.1 118.2,12.9 L122.3,7.4 L118.3,2.1 L118.3,2.1 Z" id="Shape" fill="#000000"></path>
            </g>
        </g>
    </g>
</svg>